PathFileType	4	(X/Y/Z)	 s06c0403.trc
DataRate	CameraRate	NumFrames	NumMarkers	Units	OrigDataRate	OrigDataStartFrame	OrigNumFrames
200	200	6	48	mm	200	1751	2000
Frame#	Time	racr			lacr			c7			jug			rlel			rdr			llel			ldr			s2			lic			ric			lasi			rasi			rpsi			lpsi			rgt			lgt			rth1			rth2			rth3			rth4			rlfc			rmfc			rsh1			rsh2			rsh3			rsh4			rlmal			rcal			rtoe			rmt5			lth1			lth2			lth4			lth3			llfc			lmfc			llmal			lcal			lmt5			lsh1			lsh2			lsh3			lsh4			ltoe			SBIKE			LBIKE			RBIKE			
		X1	Y1	Z1	X2	Y2	Z2	X3	Y3	Z3	X4	Y4	Z4	X5	Y5	Z5	X6	Y6	Z6	X7	Y7	Z7	X8	Y8	Z8	X9	Y9	Z9	X10	Y10	Z10	X11	Y11	Z11	X12	Y12	Z12	X13	Y13	Z13	X14	Y14	Z14	X15	Y15	Z15	X16	Y16	Z16	X17	Y17	Z17	X18	Y18	Z18	X19	Y19	Z19	X20	Y20	Z20	X21	Y21	Z21	X22	Y22	Z22	X23	Y23	Z23	X24	Y24	Z24	X25	Y25	Z25	X26	Y26	Z26	X27	Y27	Z27	X28	Y28	Z28	X29	Y29	Z29	X30	Y30	Z30	X31	Y31	Z31	X32	Y32	Z32	X33	Y33	Z33	X34	Y34	Z34	X35	Y35	Z35	X36	Y36	Z36	X37	Y37	Z37	X38	Y38	Z38	X39	Y39	Z39	X40	Y40	Z40	X41	Y41	Z41	X42	Y42	Z42	X43	Y43	Z43	X44	Y44	Z44	X45	Y45	Z45	X46	Y46	Z46	X47	Y47	Z47	X48	Y48	Z48	
1751	8.7550	809.565740	1213.976976	-68.904430	814.736644	1220.098449	-393.252859	843.445520	1283.083225	-226.214690	768.330621	1134.831340	-227.546303	593.383687	1120.838547	82.018443	699.905686	953.357548	-21.850647	576.965806	1119.487012	-497.417368	689.066785	945.136611	-419.625101	258.471648	1206.948645	-237.280476	412.381994	1135.006890	-388.114055	381.143393	1129.455263	-58.352707	411.955192	1083.924736	-347.241024	402.003465	1081.940260	-96.333561	295.971244	1230.339529	-198.661465	299.664684	1233.665981	-258.960631	310.842583	1055.498532	-39.831631	382.254833	1087.558755	-416.972396	340.203770	922.523542	-16.458392	372.967452	837.084095	-17.434543	358.659185	751.905232	-29.524816	408.430031	842.779240	-28.420564	361.836152	645.509279	-40.770629	354.598499	620.633347	-148.872350	323.289031	527.234296	-19.285488	319.333515	441.699079	-38.702151	274.874657	367.278907	-45.359132	343.235557	439.145221	-71.658090	243.594252	294.995955	-52.903679	178.718604	289.659032	-101.355554	424.707208	161.757063	-95.413473	326.860247	184.726252	-27.938628	426.309332	982.564217	-433.703279	490.556583	924.561831	-423.153250	516.342471	941.944511	-403.045334	519.490525	839.722436	-425.498523	520.131628	730.287994	-403.867260	512.937897	712.208962	-290.367058	181.607332	580.350846	-377.445411	131.932117	631.222903	-328.224834	157.291505	433.864857	-395.477221	427.244535	674.020086	-421.943761	360.224529	625.003040	-397.067726	272.617482	610.787547	-393.173237	374.797435	604.678517	-366.625563	191.957690	354.982102	-335.464147	-204.258716	867.110416	-202.100964	-52.024688	84.124833	-410.349379	-50.842764	80.225890	-12.985651	
1752	8.7600	810.214952	1214.473905	-71.636982	813.777104	1219.797104	-394.790583	842.801493	1283.344049	-228.341646	768.929985	1134.528229	-229.155490	593.728956	1120.755692	80.735724	700.202048	952.983473	-22.443606	575.562008	1118.152723	-497.984602	688.813861	945.142727	-419.482218	257.842251	1205.584398	-234.887303	410.645574	1135.921753	-388.438243	382.551162	1126.759079	-57.862070	410.785406	1084.257649	-348.301299	403.039462	1079.620604	-96.511666	295.571309	1228.580776	-196.099117	298.559694	1232.730895	-256.251506	311.337027	1052.205908	-39.668673	380.908911	1090.772097	-416.145999	337.348611	918.903392	-16.231397	367.405573	832.740000	-17.492309	350.617296	747.851804	-29.980475	403.070941	837.282931	-28.966122	352.148700	642.087084	-41.293346	343.820737	616.720324	-149.259089	315.291289	523.451828	-19.717690	312.098999	437.899732	-38.779710	268.309681	363.112843	-45.202800	335.848816	435.466040	-72.401760	237.827133	290.359656	-52.688899	173.231420	286.744693	-100.988563	416.154363	153.012799	-95.412843	318.911879	178.288550	-27.888564	426.950251	986.791068	-434.171499	492.641661	930.111734	-424.805879	518.744495	948.048467	-404.498433	523.153734	845.925465	-427.302257	526.854921	735.948434	-404.233978	520.138533	718.298055	-290.478803	187.930548	587.496327	-377.588354	136.992658	637.737799	-328.316271	166.172555	440.924972	-395.564036	434.759639	680.016223	-421.840851	367.242002	631.459352	-397.045250	279.474306	617.722931	-393.393334	381.578351	610.737239	-366.748609	202.269293	362.704471	-335.517991	-204.263892	867.088659	-202.160279	-52.016820	84.189670	-410.441008	-50.826458	80.231847	-13.006378	
1753	8.7650	808.237215	1216.175535	-72.322173	812.792673	1219.686570	-396.361037	842.175320	1283.430428	-230.541291	766.252805	1135.713023	-229.907294	594.021244	1120.530975	79.415713	700.630955	952.562271	-22.928688	574.226060	1116.611532	-498.571305	688.742884	944.932533	-418.851117	257.155220	1204.437490	-232.536178	408.701324	1137.015903	-388.724377	384.121172	1124.026530	-57.833749	409.482691	1084.804229	-349.309862	404.457957	1078.067019	-96.835807	295.169674	1226.887252	-193.545399	297.410585	1231.795634	-253.630033	312.188543	1049.007922	-39.587048	379.339878	1093.952941	-415.283710	334.728092	915.784737	-16.094841	361.515044	828.901617	-17.835661	343.496651	744.178637	-30.100197	397.861398	832.224882	-29.726239	342.840639	639.310972	-41.827656	333.275564	613.909819	-149.750426	307.237049	520.668239	-19.766012	305.322873	435.047187	-38.485664	261.701347	359.761683	-44.949441	328.421305	432.940508	-72.748870	232.170321	286.526619	-52.460295	167.901284	284.755374	-100.839667	407.445608	144.622721	-95.303337	310.831072	172.421925	-27.783531	427.011941	990.920630	-434.826758	494.188680	935.577540	-426.704153	520.255772	954.190055	-406.833113	526.353655	852.032215	-429.229777	533.509324	741.799721	-404.348497	528.197727	724.182842	-290.029857	194.541663	593.932608	-377.253877	142.189366	643.551405	-328.411196	175.665737	447.504189	-395.917740	441.988818	686.044452	-421.654122	374.005449	637.686637	-396.953612	286.427212	624.073283	-393.070233	388.453421	617.097590	-366.491107	212.955404	369.895292	-335.504737	-204.295617	867.098511	-202.109433	-52.001884	84.216569	-410.444395	-50.853614	80.171640	-12.975832	
1754	8.7700	808.500409	1216.509328	-74.871920	811.727834	1219.622739	-397.936762	841.560789	1283.601806	-232.782185	766.265265	1135.629414	-231.708619	594.238927	1120.164564	77.984833	701.112070	952.210410	-23.247603	573.048403	1114.833436	-498.998466	688.681009	944.711157	-418.096070	256.199566	1203.407934	-229.745010	406.756224	1138.233489	-388.974569	385.837116	1121.698528	-57.285324	408.063402	1085.457814	-350.332716	405.291004	1075.281387	-97.780399	294.809621	1225.423203	-191.059774	296.208309	1230.959771	-251.090918	313.347354	1045.880607	-39.418990	377.458157	1097.005986	-414.518835	332.246064	913.130008	-15.845054	356.683866	825.525729	-18.083711	335.939414	741.777434	-30.238708	392.741374	827.773477	-30.914725	333.450714	637.106017	-42.458074	322.045772	612.615983	-150.459852	299.154565	518.582214	-19.863279	297.942428	432.839732	-38.424862	255.012519	357.210445	-44.622044	320.829835	431.136843	-72.622109	226.626534	283.614000	-52.363571	162.846116	283.549313	-100.719844	398.325365	136.566050	-95.034801	302.485903	167.110683	-27.645892	426.251498	994.959281	-435.971298	495.186122	941.043815	-428.668168	521.033153	960.164232	-408.961973	529.020341	857.951988	-431.112683	539.957164	747.927993	-404.837430	535.758264	730.420961	-289.866080	201.253806	599.965728	-377.197832	147.546624	648.573750	-328.100918	185.069258	453.518608	-395.909410	449.056632	692.130712	-421.379250	380.942386	643.834985	-396.761446	293.382267	630.282609	-392.943822	395.256074	623.611133	-365.955223	223.918216	376.703808	-335.565436	-204.307755	867.112751	-202.017773	-51.979315	84.259005	-410.415806	-50.816049	80.232447	-12.965757	
1755	8.7750	807.617122	1217.431026	-76.267459	810.646327	1219.435801	-399.535181	840.846139	1283.796746	-234.930425	765.031500	1136.264665	-233.113550	594.365290	1119.421462	75.773019	701.575254	951.830000	-23.752787	572.047726	1113.070857	-499.633280	688.597627	944.601393	-417.319476	255.079777	1202.452419	-226.894978	404.714104	1139.522407	-389.178368	387.849046	1119.584282	-57.606413	406.179356	1086.101615	-351.439193	406.661803	1073.127781	-98.457502	294.421641	1224.019698	-188.599179	294.849708	1230.379954	-248.595545	314.601699	1042.934229	-39.170779	375.293620	1099.893704	-414.181665	329.924944	911.006902	-15.463869	351.833122	822.774093	-18.361869	328.585040	739.788105	-30.222093	387.778402	824.047203	-31.689155	324.073115	635.627439	-42.981382	312.181637	611.588015	-151.333031	290.902137	517.097605	-19.957718	290.576587	431.249668	-38.257044	248.284274	355.237708	-44.284043	313.410952	429.780443	-72.436600	221.371769	281.130739	-52.127404	158.111854	283.348139	-100.546799	388.911818	128.722308	-94.861065	293.961503	162.286887	-27.490045	425.203309	998.062693	-436.863718	495.515881	946.068205	-430.547747	520.999379	965.852008	-410.833734	531.220900	863.953929	-433.541208	546.179630	754.074348	-405.386625	543.050032	737.176751	-290.358672	208.098601	605.441169	-376.909450	153.072770	653.029532	-327.776224	194.775009	458.953267	-395.808929	455.884291	698.021701	-421.224918	387.805894	649.698665	-396.579592	300.248054	636.109657	-392.679915	402.226708	629.476440	-365.839650	235.207727	382.930089	-335.581594	-204.337575	867.126429	-201.895839	-51.995446	84.304265	-410.385624	-50.740336	80.174867	-12.947242	
1756	8.7800	806.790142	1218.582641	-77.671838	809.506158	1219.344998	-400.931873	840.062596	1283.988789	-236.991415	763.742964	1136.604074	-234.420825	594.292205	1119.041302	74.037229	701.781094	951.380236	-24.581626	571.230949	1111.254959	-500.261718	688.515874	944.590940	-416.546334	253.914350	1201.576900	-224.016933	402.553956	1140.836640	-389.377115	389.907763	1117.580448	-58.040016	404.221667	1086.820860	-352.503172	407.907333	1071.031639	-99.256425	293.879004	1222.840760	-186.131109	293.415579	1229.897051	-246.062941	315.903244	1040.168288	-38.710850	372.821443	1102.340469	-414.047982	327.724110	909.659985	-15.440299	347.647848	821.069813	-18.484164	321.546870	738.500970	-30.059926	382.978490	821.335627	-32.441120	314.972540	634.758594	-43.388484	302.904641	610.863474	-152.281924	282.597172	516.290786	-20.007692	283.223073	430.225997	-38.016770	241.670236	353.841479	-43.998247	306.301630	428.972373	-71.743488	216.317741	279.607252	-51.788706	153.914329	283.951180	-100.422715	379.151040	121.203310	-94.632150	285.325647	157.946689	-27.341403	423.792536	1001.103674	-438.697444	495.206440	950.782346	-432.031607	520.214759	971.201554	-412.483277	533.039648	869.838288	-436.149233	551.965408	760.651562	-406.642339	549.912999	743.997536	-290.570822	215.017683	610.091037	-376.418125	158.788500	656.707547	-327.468260	204.693897	463.713621	-395.785403	462.531537	703.817898	-421.212347	394.852194	655.271702	-396.401955	307.069387	641.375484	-392.256394	409.092600	635.176248	-365.700102	247.256799	389.664641	-337.203931	-204.368478	867.158184	-201.768950	-52.005437	84.335921	-410.373617	-50.763421	80.243331	-12.922037	
